<?xml version="1.0" encoding="UTF-8" standalone="no"?>
<!-- Created with Inkscape (http://www.inkscape.org/) -->

<svg
   width="512"
   height="512"
   viewBox="0 0 135.46666 135.46667"
   version="1.1"
   id="svg1"
   inkscape:version="1.4 (e7c3feb100, 2024-10-09)"
   xml:space="preserve"
   sodipodi:docname="green.svg"
   inkscape:export-filename="green.png"
   inkscape:export-xdpi="24"
   inkscape:export-ydpi="24"
   xmlns:inkscape="http://www.inkscape.org/namespaces/inkscape"
   xmlns:sodipodi="http://sodipodi.sourceforge.net/DTD/sodipodi-0.dtd"
   xmlns="http://www.w3.org/2000/svg"
   xmlns:svg="http://www.w3.org/2000/svg"><sodipodi:namedview
     id="namedview1"
     pagecolor="#2d2d2d"
     bordercolor="#000000"
     borderopacity="1"
     inkscape:showpageshadow="0"
     inkscape:pageopacity="0"
     inkscape:pagecheckerboard="1"
     inkscape:deskcolor="#1a1a1a"
     inkscape:document-units="px"
     showborder="true"
     inkscape:zoom="0.5649414"
     inkscape:cx="-140.72256"
     inkscape:cy="-107.9758"
     inkscape:window-width="2560"
     inkscape:window-height="1359"
     inkscape:window-x="0"
     inkscape:window-y="0"
     inkscape:window-maximized="1"
     inkscape:current-layer="layer1" /><defs
     id="defs1"><clipPath
       clipPathUnits="userSpaceOnUse"
       id="clipPath8"><path
         id="path8"
         style="fill:#ffffff;stroke-width:0.079375;stroke-linecap:square"
         d="m -25.22623,-90.16379 c -0.316389,1.495718 -0.107844,3.219667 -0.794782,4.593518 -0.267361,0.534694 -0.525806,1.152295 -0.827855,1.655712 -0.273182,0.455282 -0.752951,0.843447 -0.993722,1.324983 -0.296148,0.592342 -0.612484,1.249966 -0.993219,1.821077 -0.167005,0.250524 -0.483394,0.423659 -0.66249,0.662493 -0.409126,0.545497 -0.684001,1.346483 -1.159114,1.821595 -0.08726,0.08727 -0.243945,0.0781 -0.331258,0.165365 -0.174519,0.174538 -0.182642,0.465021 -0.330729,0.66249 -0.215847,0.287795 -0.643414,0.519647 -0.828358,0.827858 -0.08977,0.149666 -0.08729,0.340497 -0.165364,0.496609 -0.228309,0.45661 -0.852091,0.74971 -1.159113,1.159103 -0.489982,0.65329 -1.892062,1.797751 -2.152306,2.318205 -0.02461,0.04937 0.039,0.126333 0,0.165364 -0.08726,0.08727 -0.232569,0.09183 -0.331259,0.165881 -0.37084,0.278127 -0.631639,0.703522 -0.993748,0.993222 -0.669528,0.535609 -1.379617,1.04839 -1.986942,1.655712 -0.619601,0.619596 -1.103524,1.462548 -1.655709,2.152841 -1.142259,1.427776 -2.511055,2.545516 -3.973936,3.642672 -0.486754,0.365075 -0.804677,0.898951 -1.32498,1.159102 -0.353325,0.176665 -0.611188,0.70485 -0.827855,0.993738 -0.430927,0.574559 -1.322943,0.991709 -1.821074,1.489832 -0.19513,0.195141 -0.301996,0.467349 -0.497126,0.66249 -0.716227,0.716193 0.04421,0.02582 -0.661987,0.496613 -0.220319,0.146878 -0.341842,0.507248 -0.497126,0.66249 -0.52152,0.521554 -1.235975,1.051512 -1.821074,1.490347 -0.37084,0.278128 -0.631666,0.70358 -0.993722,0.993222 -0.496173,0.396923 -0.997135,0.764943 -1.489842,1.159103 -0.726044,0.580848 -1.244071,1.42939 -1.987471,1.986957 -0.949087,0.711806 -0.03834,0.01969 -0.993219,0.497128 -0.173435,0.08672 -1.078601,0.885968 -1.159114,0.993222 -0.07408,0.09873 -0.06665,0.257197 -0.165364,0.331246 -0.139621,0.104722 -0.340995,0.0873 -0.497126,0.165364 -0.434446,0.217234 -0.787929,0.696791 -1.159086,0.993738 -0.192749,0.154197 -0.464529,0.183145 -0.661988,0.331245 -0.326469,0.244862 -0.627142,0.644546 -0.993748,0.827858 -0.156131,0.07806 -0.346949,0.07556 -0.496597,0.165364 -0.445823,0.267494 -0.695457,0.92728 -1.159113,1.159103 -0.156104,0.07805 -0.36031,0.05685 -0.496596,0.16588 -1.712384,1.369888 0.33393,0.03868 -0.497126,0.661977 -0.889,0.66674 -1.774693,1.331272 -2.648929,1.986957 -0.249793,0.187339 -0.402722,0.489302 -0.66249,0.662493 -0.299323,0.199541 -1.016371,0.571106 -1.324478,0.827855 -0.247226,0.206031 -0.245824,0.626809 -0.497125,0.827858 -0.192749,0.154196 -0.472361,0.173228 -0.661988,0.331245 -0.15285,0.127399 -0.1905,0.355893 -0.331232,0.496612 -0.238919,0.238916 -0.602006,0.36132 -0.827881,0.66249 -0.279321,0.37243 -0.299217,0.555398 -0.66249,0.827858 -0.716968,0.537726 -0.884158,0.985189 -1.490345,1.490347 -0.212011,0.176673 -0.466805,0.301469 -0.661961,0.496613 -0.08726,0.08727 -0.07858,0.243974 -0.165894,0.331245 -1.071986,1.071962 0.09181,-0.528458 -0.993219,0.827854 -0.498422,0.623031 -0.915988,1.412613 -1.490345,1.98696 -0.08726,0.08727 -0.243946,0.07861 -0.331232,0.165881 -0.08729,0.08727 -0.07057,0.252235 -0.165365,0.331248 -0.247253,0.206033 -0.566499,0.309546 -0.828384,0.496609 -0.451749,0.322662 -1.019492,1.089293 -1.489842,1.324467 -0.09874,0.04937 -0.228732,-0.04099 -0.331232,0 -0.256222,0.102495 -0.406241,0.394637 -0.66249,0.497129 -0.211296,0.08451 -0.458946,0.06359 -0.66249,0.165364 -0.139621,0.06981 -0.205873,0.237575 -0.330729,0.331245 -0.09874,0.07406 -0.220875,0.110165 -0.331259,0.165365 -0.05519,0 -0.116469,-0.02469 -0.165867,0 -0.580522,0.290266 -1.382342,0.720355 -1.821074,1.159102 -0.08731,0.08727 -0.06321,0.262785 -0.165894,0.331245 -0.247306,0.164873 -0.572982,0.178323 -0.827855,0.331246 -0.579517,0.347708 -1.087093,0.945389 -1.655709,1.324467 -0.205396,0.13692 -0.457121,0.194326 -0.662491,0.331246 -0.928608,0.619077 -1.706509,1.397945 -2.648955,1.986959 -0.313954,0.196234 -0.704612,0.265315 -0.993722,0.49661 -0.516387,0.413115 -0.973958,0.911869 -1.490345,1.324984 -0.289137,0.231295 -0.675719,0.306117 -0.993219,0.496611 -0.667623,0.400578 -1.18999,1.182005 -1.821604,1.655713 -0.277071,0.207804 -0.76536,0.26822 -0.993748,0.49661 -0.039,0.03903 0.04942,0.141201 0,0.165881 -0.09869,0.04937 -0.232013,-0.04937 -0.330703,0 -0.303292,0.151639 -0.859605,0.648153 -1.159113,0.827857 -0.210211,0.126126 -0.636323,0.203559 -0.827855,0.331246 -0.902361,0.601583 -1.862848,1.200333 -2.649458,1.986959 -0.4926,0.492589 -1.16607,0.834843 -1.65571,1.324468 -0.34248,0.342471 -0.20336,0.442176 -0.49713,0.66249 -0.15919,0.119404 -0.31861,0.242246 -0.49659,0.331246 -0.0494,0.02468 -0.12639,-0.03903 -0.16539,0 -0.0873,0.08727 -0.0786,0.243976 -0.16587,0.331246 -0.21259,0.212594 -0.57835,0.16492 -0.82785,0.331246 -0.38214,0.254742 -0.61111,0.73848 -0.99322,0.993221 -0.2054,0.13692 -0.48795,0.156707 -0.66249,0.331246 -0.0873,0.08727 -0.0781,0.243977 -0.16537,0.331246 -0.0873,0.08727 -0.22857,0.09691 -0.33126,0.165365 -0.24876,0.165846 -0.3973,0.5299 -0.66249,0.662492 -0.0494,0.02468 -0.12636,-0.03903 -0.16536,0 -0.0873,0.08727 -0.0786,0.243976 -0.16587,0.331246 -0.27765,0.277644 -0.51858,0.228152 -0.82785,0.331246 -0.26692,0.08896 -0.40709,0.534257 -0.66252,0.661975 -0.2526,0.126291 -0.76274,0.177592 -0.99322,0.331246 -0.12986,0.0866 -0.20135,0.24465 -0.33123,0.331246 -0.38981,0.259871 -1.04407,0.439353 -1.49035,0.6624915 -0.50477,0.2524768 0.30298,0.1308322 -0.49662,0.3307292 -0.10705,0.026773 -0.22651,-0.034908 -0.33123,0 -0.361,0.1203319 -0.7978,0.5420502 -1.15911,0.6624918 -0.10473,0.034908 -0.22654,-0.034908 -0.33126,0 -0.22823,0.076081 -0.37754,0.274361 -0.66196,0.3312458 -0.16238,0.032473 -0.34005,-0.052362 -0.49713,0 -0.0524,0.017455 0.039,0.1263367 0,0.1653646 -0.0568,0.056797 -0.57766,0.04214 -0.66196,0 -0.15986,-0.079931 -0.92144,-0.4243485 -0.99375,-0.4966104 -0.0663,-0.066278 -0.0898,-0.2105015 -0.33126,-0.3312459 -0.27228,-0.1361454 -0.38965,-0.029219 -0.66196,-0.1653646 -0.41066,-0.2053289 -0.72572,-0.61116 -1.15911,-0.827856 -0.488,-0.243989 -1.24426,-0.415906 -1.65621,-0.827857 -0.039,-0.03903 0.0306,-0.119957 0,-0.165881 -0.20307,-0.304619 -0.66445,-0.501058 -0.82786,-0.827857 -0.0246,-0.04937 0.039,-0.126336 0,-0.165364 -0.0873,-0.08727 -0.25675,-0.06715 -0.33073,-0.165882 -0.0952,-0.126856 -0.36375,-0.859833 -0.49715,-0.993221 -0.039,-0.03903 -0.12634,0.03903 -0.16534,0 -0.17457,-0.174539 -0.19433,-0.457112 -0.33126,-0.662492 -0.12737,-0.191057 -0.36925,-0.305554 -0.49662,-0.49661 -0.66855,-1.002812 -1.29826,-2.099447 -1.82158,-3.146062 -0.11252,-0.225054 -0.38409,-0.437438 -0.49662,-0.66249 -0.33398,-0.667996 -0.66236,-1.324251 -0.99372,-1.98696 -0.0698,-0.139631 -0.24466,-0.201352 -0.33126,-0.331246 -0.0968,-0.145225 -0.0419,-0.373192 -0.16536,-0.496611 -0.039,-0.03903 -0.14076,0.04937 -0.16537,0 -0.0494,-0.09873 0.0349,-0.226522 0,-0.331246 -0.0494,-0.1481 -0.26143,-0.191614 -0.33123,-0.331245 -0.0494,-0.09873 0.0493,-0.232516 0,-0.331246 -0.0699,-0.139631 -0.26146,-0.191099 -0.33126,-0.33073 -0.0748,-0.149564 -0.43992,-1.098099 -0.49662,-1.324983 -0.0267,-0.107092 0.0494,-0.232516 0,-0.331246 -0.0246,-0.04937 -0.12687,0.03903 -0.16587,0 -0.16057,-0.160918 -0.0809,-0.450679 -0.16536,-0.661975 -0.28694,-0.717333 -0.76902,-1.312687 -0.99375,-1.986959 -0.039,-0.117085 -0.11015,-0.220858 -0.16537,-0.331246 -0.0552,-0.05519 -0.14126,-0.09183 -0.16586,-0.165881 -0.0349,-0.104724 0.0268,-0.224154 0,-0.331246 -0.0299,-0.119733 -0.11018,-0.220341 -0.16537,-0.330729 -0.0552,-0.05519 -0.14076,-0.09183 -0.16536,-0.165882 -0.0349,-0.104724 0.0349,-0.226522 0,-0.331246 -0.0572,-0.171513 -0.24906,-0.332341 -0.33126,-0.49661 -0.0805,-0.160916 -0.0854,-0.501576 -0.16587,-0.662492 -0.27347,-0.546933 -0.54687,-1.093703 -0.82785,-1.655712 -0.2326,-0.465159 -0.33782,-1.013992 -0.49663,-1.490348 -0.34398,-1.031959 -0.86188,-1.889709 -1.32445,-2.814814 -0.1561,-0.31223 -0.17515,-0.680998 -0.33126,-0.993222 -0.25048,-0.500947 -0.59235,-0.901558 -0.82785,-1.490351 -0.041,-0.102491 0.0612,-0.239395 0,-0.331245 -0.28554,-0.428291 -0.67495,-0.864237 -0.82836,-1.324467 -0.0349,-0.104725 0.0494,-0.232516 0,-0.331245 -0.0246,-0.04937 -0.12639,0.03903 -0.16539,0 -0.14949,-0.149529 -0.23262,-0.630571 -0.33123,-0.827857 -0.11253,-0.225055 -0.3841,-0.437436 -0.49662,-0.662491 -0.25498,-0.509979 -0.31954,-1.124569 -0.4966,-1.655714 -0.34052,-1.021628 -0.73861,-1.9601 -0.99375,-2.980696 -0.11314,-0.452503 -0.5275,-0.755639 -0.66196,-1.159102 -0.0812,-0.243451 -0.0515,-0.599065 -0.16589,-0.827858 -0.12494,-0.249848 -0.22826,-0.353065 -0.33126,-0.661974 -0.14947,-0.448408 -0.0151,-1.039193 -0.16534,-1.490348 -0.0694,-0.208314 -0.24987,-0.418184 -0.33126,-0.662492 -0.0524,-0.157086 0.0325,-0.334243 0,-0.49661 -0.0905,-0.452694 -0.31144,-0.954604 -0.49662,-1.324986 -0.0494,-0.09873 0.078,-0.252677 0,-0.330726 -0.039,-0.03903 -0.12687,0.03903 -0.16587,0 -0.0564,-0.05636 -0.093,-0.683641 -0.16536,-0.828374 -0.2871,-0.574204 -0.87749,-0.568515 -1.43764,-0.459404 -0.007,0.0159 -0.007,0.03112 -0.0146,0.04702 0.0729,0.0075 0.12764,0.02904 0.12764,0.08165 0,0.08392 -0.0731,0.09515 -0.16431,0.08785 -0.67984,1.594747 0.57486,4.182496 0.0233,5.837369 -0.41201,1.236033 -0.61749,4.545963 -0.66249,4.635892 -0.13962,0.279262 -0.56378,0.366289 -0.66249,0.662493 -0.13962,0.418893 0.19748,0.929526 0,1.324467 -0.0987,0.197466 -0.50586,-0.156115 -0.66196,0 -0.31224,0.312224 0.3122,1.012759 0,1.324983 -0.15614,0.156112 -0.56381,-0.197469 -0.6625,0 -0.76536,1.530718 0.10287,1.118216 -0.66249,2.648934 -0.0987,0.197469 -0.50638,-0.156112 -0.66249,0 -0.22079,0.220777 -0.44121,1.7667 -0.66198,1.987476 -0.38389,0.383884 -2.26558,0.940583 -2.64946,1.324467 -0.15611,0.156112 0.15613,0.506378 0,0.66249 -0.31221,0.312227 -0.92954,-0.197466 -1.32445,0 -1.54387,0.771928 -3.08846,1.212985 -4.63643,1.98696 -1.23634,0.618176 -3.40005,-0.618172 -4.6364,0 -0.19746,0.09874 0.19746,0.563245 0,0.661975 -0.70649,0.353242 -1.94297,-0.353238 -2.64946,0 -1.96389,0.981956 -4.08212,1.710077 -5.96087,2.649451 -0.70649,0.353243 -1.94294,-0.35324 -2.64943,0 -1.54798,0.773982 -3.65914,1.167324 -5.29839,1.986959 -0.27927,0.139632 -0.36632,0.563761 -0.66252,0.662491 -0.31379,0.104599 -4.6151,1.303137 -4.6364,1.324467 -0.1561,0.156113 0.15611,0.506379 0,0.662492 -0.2455,0.245503 -2.23975,0.457897 -2.64893,0.662493 -1.22565,0.612823 -2.96889,2.146415 -3.97391,2.648933 -0.39494,0.197469 -0.93006,-0.197469 -1.32498,0 -1.19496,0.597475 -2.14995,2.06871 -3.31144,2.64945 -0.40918,0.204595 -2.40393,0.416989 -2.64943,0.662492 -0.14373,0.143713 -0.53338,1.259897 -0.66249,1.324468 -0.39495,0.197468 -0.92954,-0.19747 -1.32448,0 -0.19746,0.09873 0.1561,0.506378 0,0.662491 -0.15611,0.156112 -0.46503,-0.09873 -0.66249,0 -0.55854,0.279262 -0.76594,1.045206 -1.32448,1.324467 -0.81285,0.406435 -4.13366,1.484221 -4.6364,1.986959 -0.1561,0.156112 0.1561,0.50638 0,0.662492 -0.34282,0.342819 -2.30664,0.319673 -2.64946,0.662492 -0.1561,0.156112 0.15611,0.505863 0,0.6619749 -0.31221,0.3122253 -0.9295,-0.1974679 -1.32445,0 -0.55853,0.2792627 -0.76594,1.0457212 -1.32448,1.3249839 -0.19745,0.098734 -0.50638,-0.1561129 -0.66249,0 -0.15613,0.1561126 0.15611,0.5058624 0,0.661975 -0.31223,0.312225 -1.01224,-0.3122252 -1.32447,0 -0.15611,0.1561124 0.19748,0.5637578 0,0.6624918 -0.9466,0.473301 -1.27702,-0.3549758 -1.98695,0 -1.8665,0.9332447 -4.09662,0.3920731 -5.9614,1.324467 -1.94284,0.9714164 -5.34249,-0.9714165 -7.28533,0 -2.40964,1.204812 -4.8632,2.1006078 -7.28586,3.3119425 -0.39989,0.1999486 -1.68079,-0.306171 -1.98697,0 -0.15613,0.1561126 0.15611,0.5063794 0,0.6624919 -0.59041,0.5904135 -1.94603,0.3102697 -2.64945,0.661975 -1.54596,0.77298818 -2.85012,2.05419988 -4.63587,2.6494507 -0.41892,0.1396312 -0.93009,-0.1974686 -1.32501,0 -3.03149,1.5157217 -6.17429,3.0874523 -9.2723,4.6364093 -0.39489,0.1974686 -0.93009,-0.1974686 -1.325,0 -0.2793,0.1396312 -0.4413,0.4411988 -0.66199,0.6619754 -0.2208,0.220777 -0.3832,0.52286 -0.66252,0.662492 -0.4014,0.200705 -1.70929,0.3849481 -1.98689,0.6624921 -0.1561,0.1561129 0.15621,0.5063778 0,0.662491 -0.61859,0.618668 -2.6933,0.705798 -3.312,1.3244668 -0.1561,0.1561117 0.15611,0.5063807 0,0.6624917 -0.83359,0.833568 -5.1272,1.815367 -5.9608,2.648934 -0.1561,0.156113 0.099,0.465024 0,0.662492 -0.7948,1.58959 -3.17899,2.384327 -3.97391,3.973918 -0.099,0.197469 0.15621,0.506379 0,0.662491 -0.1561,0.156113 -0.50638,-0.156112 -0.66249,0 -0.22079,0.220776 -0.44119,1.766183 -0.66201,1.986959 -0.15608,0.156113 -0.50639,-0.156113 -0.66249,0 -0.17259,0.172543 -1.78199,2.901349 -1.98699,3.311426 -0.19752,0.394939 0.1974,0.930048 0,1.324983 -0.39741,0.794798 -1.58951,1.192165 -1.98692,1.98696 -0.19748,0.394939 0.19741,0.929527 0,1.324467 -0.27929,0.558525 -1.04518,0.765943 -1.32448,1.324468 -0.1974,0.394938 0.31229,1.012756 0,1.324983 -0.1561,0.156112 -0.50641,-0.156115 -0.66251,0 -0.31219,0.312224 0.19751,0.929531 0,1.324467 -0.46149,0.923041 -1.08731,1.464037 -1.3244,2.64945 -0.12989,0.649467 0.16071,1.344403 0,1.986957 -0.18039,0.721807 -1.60459,3.208147 -1.9875,3.97392 -0.2649,0.529865 0.26501,1.457095 0,1.986957 -0.94959,1.899367 -1.0369,4.061511 -1.98649,5.960878 -0.19751,0.394938 0.19741,0.930044 0,1.324983 -0.27929,0.558524 -1.04571,0.765942 -1.32501,1.324467 -0.19989,0.399896 0.3062,1.680789 0,1.98696 -0.1561,0.156112 -0.5063,-0.156112 -0.66241,0 -0.42018,0.420124 0.27572,2.098003 0,2.64945 -0.69638,1.391909 -0.34139,2.008227 -0.66199,2.64945 -0.13959,0.279262 -0.56351,0.365771 -0.66249,0.661974 -0.299,0.897112 0.61871,4.017759 0,4.63641 -0.1561,0.156112 -0.50641,-0.156112 -0.66251,0 -0.43799,0.437931 0.43791,0.886537 0,1.324467 -0.71851,0.718498 -1.35948,0.105077 -1.987,1.987476 -0.2645,0.79334 -0.0705,2.057456 -0.66191,2.648935 -0.1561,0.156112 -0.50628,-0.156113 -0.66249,0 -0.84899,0.849 0.55851,4.181972 0,5.2989 -0.5694,1.138931 -0.75498,2.172496 -1.3245,3.311427 -0.2,0.399897 0.3061,1.680787 0,1.986957 -0.1561,0.156112 -0.50639,-0.156112 -0.66249,0 -0.2672,0.267134 -0.30231,3.253595 -0.66252,3.973918 -1.51558,3.031222 0.27472,-2.810569 -1.32439,1.986959 -0.1397,0.418894 0.3122,1.012757 0,1.324984 -0.26509,0.265115 -0.84199,0.358513 -1.32498,1.324467 -0.19752,0.394938 0.19748,0.930044 0,1.324983 -0.27933,0.558525 -1.04521,0.765942 -1.32451,1.324467 -0.1974,0.394938 0.1397,0.905573 0,1.324467 -0.45029,1.351119 -1.4188,2.175692 -1.98699,3.311943 -0.38352,0.76721 -0.29081,1.905712 -0.66241,2.648931 -0.56312,1.126211 -1.44982,2.237601 -1.987,3.311951 -0.1974,0.39493 0.19749,0.92952 0,1.32446 -1.04251,2.08514 -0.9466,4.54275 -1.98702,6.62337 -0.93588,1.8718 4.08612,6.39959 3.312,7.94784 -0.90829,1.81655 -0.22468,3.09816 -0.66249,3.97391 -0.75811,1.51607 -0.7901,3.03336 -1.3245,4.63641 -0.0987,0.29621 -0.5865,0.3596 -0.66249,0.6625 -0.16071,0.64255 0.1606,1.34439 0,1.98694 -0.0757,0.30291 -0.56351,0.3663 -0.66252,0.6625 -0.53179,1.59571 -0.5492,2.42356 -1.3244,3.97391 -0.3533,0.70648 0.35322,1.94296 0,2.64945 -1.59798,3.19604 -2.37037,7.39033 -3.97388,10.59729 -0.3602,0.72032 -0.39539,3.70679 -0.66252,3.97392 -0.15607,0.15612 -0.50638,-0.15611 -0.66249,0 -0.46839,0.46834 0.20939,1.35862 0,1.98696 -0.5784,1.73502 -2.48369,3.64286 -3.3115,5.29838 -0.19751,0.39493 0.1396,0.90608 0,1.32498 -0.3122,0.93667 -1.01261,1.71227 -1.3249,2.64894 -0.33909,1.01744 -0.60769,3.91964 -1.3245,4.63642 -0.15611,0.15611 -0.50631,-0.15612 -0.66249,0 -0.15611,0.15611 0.099,0.46502 0,0.66248 -0.27922,0.55853 -1.12699,0.73207 -1.32451,1.32447 -0.13959,0.41889 0.1396,0.90608 0,1.32498 -0.19751,0.59241 -1.0451,0.76594 -1.32439,1.32447 -0.45702,0.91419 -0.20881,2.40401 -0.66249,3.31142 -0.0987,0.19746 -0.50642,-0.15612 -0.66252,0 -0.33189,0.33182 -0.22781,2.21524 -0.66199,2.64945 -0.15621,0.15612 -0.50641,-0.15611 -0.66251,0 -0.38389,0.38389 -0.9407,2.26557 -1.32451,2.64945 -0.15608,0.15611 -0.50617,-0.15611 -0.66238,0 -0.22072,0.22078 -0.4417,1.76618 -0.66249,1.98696 -0.15611,0.15612 -0.46461,-0.0987 -0.66202,0 -0.91278,0.45638 -0.8913,1.55332 -1.325,1.98697 -0.15611,0.15611 -0.50589,-0.15612 -0.66199,0 -0.15611,0.15611 0.1561,0.50638 0,0.66248 -0.15611,0.15612 -0.50641,-0.15611 -0.66252,0 -0.15618,0.15612 0.15611,0.50587 0,0.66198 -0.15618,0.15612 -0.46498,-0.0987 -0.66249,0 -0.3801,0.19006 -2.44059,2.89427 -2.6494,3.31194 -0.1999,0.3999 0.3062,1.68079 0,1.98697 -0.15611,0.15611 -0.56298,-0.19748 -0.66199,0 -0.68022,1.36036 0.1329,4.24013 0.66199,5.29839 0.068,0.13586 0.093,1.89355 0,1.98695 -0.15611,0.15611 -0.56298,-0.19747 -0.66199,0 -0.62341,1.2459 0.79388,6.492 -0.66252,7.94836 -0.85288,0.85292 -2.34429,0.17841 -3.31139,0.66197 -1.3394,0.66969 -2.66801,1.33378 -3.97439,1.98696 -1.35051,0.67526 -4.65971,5.34602 -5.29841,6.62337 -0.20069,0.40141 -0.38499,1.70942 -0.66249,1.98696 -0.15621,0.15611 -0.50591,-0.15611 -0.66201,0 -0.46699,0.46706 -1.64889,3.29681 -1.9875,3.97391 -0.27919,0.55852 -1.04518,0.76646 -1.3244,1.32499 -0.2649,0.52986 0.2649,1.45709 0,1.98696 -0.13959,0.27926 -0.52279,0.38271 -0.66249,0.66197 -0.08,0.16055 -0.17751,8.91763 0,9.27282 0.3511,0.70209 1.16919,1.63611 0.66249,2.64945 -1.41391,2.82785 -2.56,5.78249 -3.97391,8.61033 -0.66339,1.32688 -0.20878,7.07658 0.66241,7.94783 0.15621,0.15611 0.50641,-0.15611 0.66249,0 1.0319,1.03192 -0.62748,6.03048 0,7.28537 0.13962,0.27926 0.52242,0.38322 0.66202,0.66249 0.19999,0.39989 -0.30621,1.68076 0,1.98694 0.1561,0.1561 0.50638,-0.15611 0.66249,0 0.31231,0.31223 -0.19741,0.93003 0,1.32498 0.1397,0.27927 0.52242,0.38272 0.66201,0.66199 0.44159,0.8831 -0.44151,2.42884 0,3.31194 0.7321,1.46416 3.07218,2.46529 1.98689,4.63587 -0.27919,0.55851 -1.04518,0.76648 -1.3244,1.32501 -0.2962,0.5924 0.20939,1.35861 0,1.98694 -0.0987,0.2962 -0.44169,0.44172 -0.66249,0.66249 -0.22071,0 -0.56301,-0.19746 -0.66201,0 -0.19741,0.39497 0,0.88294 0,1.32448 -0.2208,0 -0.50639,-0.1561 -0.66249,0 -0.4684,0.46831 0.20949,1.35864 0,1.98694 -0.2199,0.65958 -1.10461,1.32739 -1.32451,1.98697 -0.13959,0.41889 0.1397,0.90556 0,1.32448 -0.0987,0.2962 -0.52279,0.38325 -0.66241,0.66249 -0.30718,0.61441 -1.797,5.8633 -1.98699,6.62337 -0.18608,0.74427 -0.303,8.0043 0,8.6103 1.04089,2.0818 1.3616,5.44606 1.98699,7.94785 0.25972,1.03894 -0.25969,2.27301 0,3.31195 0.6863,2.74502 2.10561,4.8737 3.31142,7.28535 0.2962,0.5924 -0.20942,1.35861 0,1.98694 0.2944,0.88313 0.90099,1.80139 1.32498,2.64946 0.60751,1.21494 1.36522,6.08275 1.98692,7.94782 0.1561,0.46837 0.4418,0.88344 0.66249,1.32498 0.22079,0 0.52951,-0.17661 0.66201,0 1.2609,1.68132 2.42218,4.18142 3.3119,5.9609 0.265,0.52989 -0.26491,1.45709 0,1.98695 0.56329,1.12664 1.5807,2.75497 1.98699,3.97393 0.13959,0.41888 -0.13959,0.90553 0,1.32445 0.19751,0.5924 1.04521,0.76647 1.3245,1.32498 0.099,0.19751 -0.1561,0.50589 0,0.66199 0.31221,0.31223 0.93001,-0.19746 1.3249,0 0.55851,0.27927 0.76589,1.0457 1.32451,1.32497 0.80589,0.40296 2.41699,0.36386 3.31139,0.66197 1.12641,0.37545 4.34261,1.50882 5.29889,1.98696 2.01991,1.00991 -1.21129,0.52538 1.98702,1.32498 2.63851,0.65961 5.30598,1.32652 7.94779,1.98697 2.05121,0.51281 3.394,1.69698 5.29889,2.64943 0.62453,0.31223 1.32472,0.44122 1.98703,0.66199 0.22079,0 0.45698,-0.082 0.66198,0 4.09509,1.63806 7.65609,3.7832 11.92221,4.63642 1.486,0.29718 3.15039,-0.29723 4.6364,0 0.4841,0.0968 0.8455,0.54274 1.3245,0.66249 2.2856,0.57142 4.9997,-0.57144 7.28538,0 2.54461,0.63614 5.25722,0.94002 7.94832,1.32446 1.09279,0.15613 2.2641,-0.34907 3.3114,0 0.2269,0.0757 2.49809,1.83562 2.64948,1.98696 0.39481,0.39481 -2.64948,9.68002 -2.64948,11.25977 0,5.77157 0.31199,-1.91127 -0.66249,1.98697 -0.215,0.85989 0.30617,2.39281 0,3.31142 -0.56232,1.68682 -0.59741,3.18241 -1.32443,4.63642 -0.3533,0.70649 0.35322,1.94297 0,2.64943 -0.1397,0.27927 -0.56348,0.36629 -0.66249,0.66249 -0.53009,1.59028 0.53009,1.05868 0,2.64893 -0.0988,0.2962 -0.56301,0.36629 -0.66199,0.66252 -0.4677,1.40311 -0.2944,2.50148 -0.66251,3.97391 -0.3605,1.44203 -1.0636,2.40914 -1.3244,3.97391 -0.1904,1.14284 0.2894,2.81659 0,3.97393 -0.95218,3.80889 -0.66249,7.89014 -0.66249,11.92226 0,3.36402 -0.38201,6.80106 0.66249,9.93479 0.7647,2.29394 -0.9093,11.22018 0,12.58424 3.62072,5.43097 14.40212,4.5801 20.53201,6.62337 1.59851,0.53284 3.65749,-0.41021 5.29839,0 0.47889,0.11972 0.84611,0.54279 1.325,0.66249 0.55931,0.13983 2.07039,-0.28948 2.64941,0 1.9613,0.98071 4.44378,1.11533 6.62289,1.98697 3.55669,1.42266 7.02974,3.20887 10.5973,4.6359 0.97795,0.39118 3.09245,0.22174 3.97391,0.66249 0.27924,0.13962 0.36629,0.5638 0.66249,0.66249 2.48211,0.82737 9.38337,-0.13828 12.58425,0.66198 0.14964,0.0374 3.02638,1.22976 3.31194,1.32498 1.04723,0.34904 2.21608,-0.13692 3.31142,0 8.85032,1.10625 -4.56149,0.27221 5.96088,1.32445 9.26616,0.9266 19.15467,1.43966 28.48044,0.6625 4.52932,-0.37743 8.52477,-1.10988 13.2462,-1.32446 11.62114,-0.52824 20.9213,-1.58199 32.45435,-3.31194 12.33062,-1.8496 1.06402,0.22367 12.58425,-0.66249 5.47856,-0.42143 10.99351,-2.30117 16.55818,-2.64893 6.600477,-0.41254 13.270967,-0.2743 19.870098,-0.66249 2.313993,-0.13611 4.979194,-0.99505 7.285329,-1.32448 2.404136,-0.34346 4.86447,0.18624 7.285857,0 2.026867,-0.15592 3.988488,-0.99626 5.960878,-1.32498 2.564341,-0.42741 5.516932,-0.51417 7.947845,-1.32448 0.936678,-0.31223 1.724977,-0.9783 2.649458,-1.32498 1.359826,-0.50993 4.701937,-1.00973 5.960877,-1.32448 3.093561,-0.77337 6.153388,-2.02557 9.272799,-2.64942 9.693539,-1.93872 26.1279743,-2.40945 35.76579248037,0 1.55233681963,0.38807 20.85551651963,0.16951 21.19457951963,0 1.041877,-0.52094 0.750888,-0.662 1.986942,-0.662 6.394952,0 13.760688,0.86474 19.869599,-0.66248 1.776757,-0.44419 4.135067,0 5.960878,0 1.060873,0 3.705648,0.46541 4.636399,0 0.279268,-0.13962 0.366289,-0.56381 0.66249,-0.66249 2.252663,-0.75088 5.842291,1.05277 7.947845,0 0.279268,-0.13964 0.36629,-0.56327 0.662491,-0.66197 0.984091,-0.32803 6.879563,-0.25671 7.285328,-0.66248 0.441563,-0.44156 -0.441537,-2.2079 0,-2.64946 0.156131,-0.1561 0.506386,0.15613 0.66249,0 0.337371,-0.33734 0,-3.56084 0,-3.97391 v -17.22067 c 0,-2.03755 0.478737,-4.70847 0,-6.62336 -0.07572,-0.3029 -0.586793,-0.35907 -0.66249,-0.66196 -0.883258,-3.53304 0.600657,-7.65594 0,-11.2598 -0.580152,-3.48094 -0.236141,-7.33234 -1.324451,-10.59727 -1.192213,-3.57659 1.192186,-8.34517 0,-11.92176 -0.156131,-0.46834 -0.565706,-0.84087 -0.66249,-1.32498 -0.503635,-2.51815 0.622458,-5.45793 0,-7.94784 -0.119751,-0.47893 -0.542237,-0.84553 -0.661988,-1.32446 -0.519456,-2.0779 0.519483,-4.54548 0,-6.62336 -0.119724,-0.47893 -0.581289,-0.83752 -0.66249,-1.32448 -0.226774,-1.36073 0.466064,-3.90067 0,-5.29892 -1.382342,-4.14702 -0.603753,-8.43465 -1.986941,-12.58422 -0.223679,-0.67098 0.472757,-2.83868 0,-3.31144 -0.156131,-0.15611 -0.506413,0.1561 -0.662517,0 -0.587931,-0.58796 -0.25236,-3.15518 -0.661961,-3.97444 -0.991288,-1.98255 -1.65817,-4.64026 -2.649458,-6.62284 -0.197459,-0.39494 0.197485,-0.93003 0,-1.32498 -0.139621,-0.27927 -0.563774,-0.36578 -0.66249,-0.66199 -0.209445,-0.62833 0.296201,-1.39504 0,-1.98747 -0.139621,-0.27924 -0.662491,-0.34975 -0.662491,-0.66196 0,-0.22082 0.506386,0.15608 0.662491,0 0.370866,-0.37086 -0.143801,-2.88052 0,-3.31195 0.09874,-0.2962 0.522869,-0.38272 0.66249,-0.66198 0.261514,-0.52303 -0.186188,-1.42836 0,-1.98694 0.156104,-0.46834 0.505857,-0.85665 0.661987,-1.32499 0.258869,-0.77663 -0.364701,-1.91957 0,-2.64895 0.09872,-0.19749 0.506386,0.1561 0.66249,0 0.472758,-0.47278 -0.223652,-2.64097 0,-3.31196 0.580285,-1.74085 0.760863,-3.60599 1.324981,-5.29836 0.28321,-0.84967 1.041241,-1.7998 1.324478,-2.64945 0.648705,-1.94611 -0.367771,-3.23839 0.66249,-5.29891 0.197458,-0.39495 -0.197459,-0.92954 0,-1.32445 1.358159,-2.71632 2.628318,-5.91916 3.973909,-8.61034 1.009915,-2.01979 0.52488,1.21139 1.324451,-1.98697 0.107104,-0.42836 -0.13962,-0.90556 0,-1.32445 0.804704,-2.41411 2.692903,-4.80965 3.311949,-7.28586 0.107103,-0.42836 -0.139621,-0.9056 0,-1.32448 0.708078,-2.12419 2.927799,-5.19364 3.973909,-7.28586 0.197485,-0.39495 -0.197459,-0.92954 0,-1.32445 1.377659,-2.75527 -0.05313,1.43025 1.324478,-1.32498 0.197485,-0.39495 -0.197459,-0.92956 0,-1.32449 0.889793,-1.77959 2.141193,-3.92789 2.649458,-5.96088 1.179486,-4.7179 -2.004907,3.35525 0.661987,-3.31194 0.539565,-1.34895 1.580356,-2.75414 1.986942,-3.97392 0.706966,-2.12094 0.727498,-3.50592 1.32498,-5.29838 0.251725,-0.75517 1.090136,-1.23179 1.324478,-1.98696 0.31959,-1.03001 0.174016,-2.36127 0.616479,-3.31194 1.191921,-2.56089 -2.625804,-5.96976 -1.396788,-8.61033 0.183806,-0.39494 2.299758,-3.57898 2.483564,-3.97392 0.793565,-1.70506 1.564217,-1.95257 2.015384,-3.89123 0.331497,-1.4245 1.551226,-2.66303 1.932173,-3.89072 0.129963,-0.41889 1.443037,-2.14788 1.573027,-2.56677 0.497258,-1.60264 0.798486,-2.27657 1.472777,-3.72535 0.316124,-0.6792 1.542177,-2.38419 1.858301,-3.06338 0.425132,-0.91345 1.562893,-1.95246 2.098037,-2.81482 0.44715,-0.72053 1.13678,-1.08904 1.63351,-1.62264 0.14531,-0.15611 0.84789,-1.08566 0.99322,-1.24178 0.45953,-0.49367 0.0697,-0.2063 0.88366,-1.16944 0.14533,-0.15611 0.66135,-1.07326 0.80669,-1.22938 0.13509,-0.14514 1.38226,-1.77999 1.55699,-2.15543 0.49369,-1.06074 1.1462,-1.91793 1.76371,-2.913 0.85717,-1.38124 1.69447,-1.89915 2.14405,-3.34811 0.12999,-0.41889 0.86987,-1.63233 1.05371,-2.02726 0.0919,-0.19747 0.50061,-0.92702 0.64595,-1.08314 0.15753,-0.16923 2.07325,-4.00942 2.12236,-4.11499 0.0919,-0.19747 0.49183,-0.88879 0.63717,-1.04491 0.6165,-0.66232 0.87381,-1.99434 1.49034,-2.65667 0.14531,-0.15612 0.47117,-1.64377 0.61651,-1.79989 0.2055,-0.22077 0.73292,-1.19568 0.93842,-1.41645 0.24678,-0.26511 0.0661,-0.62208 0.51573,-1.58802 0.65227,-1.40144 1.91637,-4.36872 1.66811,-5.61 -0.52816,-2.64092 -0.80639,-4.73742 -1.65571,-7.28535 -0.0987,-0.29621 -0.5638,-0.36628 -0.66249,-0.66248 -0.50384,-1.51156 -1.69047,-13.47316 -1.32445,-14.5712 1.62145,-4.86435 0.66196,-11.33771 0.66196,-16.55817 0,-1.41881 -0.3343,-3.29915 0,-4.63641 0.68943,-2.7577 0.14637,-6.2531 1.32498,-8.61032 1.08149,-2.16293 -0.89373,-9.90303 0,-12.58425 0.6626,-1.98796 1.21029,-5.092153 0.66199,-7.285342 -0.73213,-2.928583 -0.66199,-1.057439 -0.66199,-2.64945 0,-6.481646 0.17638,-12.539734 -1.32498,-18.545122 -0.42695,-1.707848 -0.2159,-3.514617 -0.66196,-5.2989 -0.74774,-2.990909 0,-7.508193 0,-10.597288 0,-2.583677 0.76624,-17.012658 0,-18.545119 -0.13964,-0.279262 -0.5638,-0.366289 -0.66251,-0.662493 -0.68744,-2.062414 0.43143,-3.773056 -0.66249,-5.960874 -0.41032,-0.820637 0.18044,-2.409309 0,-3.311427 -0.52951,-2.647567 -0.90631,-6.449029 -1.98694,-8.610328 -1.23638,-2.472697 1.23634,-6.800122 0,-9.272819 -1.00275,-2.005452 -4.36899,-7.0184376 -5.96088,-8.6103265 -0.15611,-0.1561124 -0.50639,0.1561126 -0.66249,0 -0.80672,-0.8067061 -0.31007,-1.4797545 -1.32448,-1.9869589 -0.91358,-0.4567944 -0.59224,0.8024717 -1.32448,-0.6619751 -0.0987,-0.1974686 0.15613,-0.5063791 0,-0.6624918 -0.27752,-0.2775447 -1.58554,-0.46178599 -1.98694,-0.66249203 -0.55853,-0.27926268 -0.76647,-1.04520416 -1.32498,-1.32446684 -0.394943,-0.19746844 -0.905589,0.13963147 -1.324477,0 -0.583883,-0.19462562 -6.001967,-2.89767213 -6.623368,-3.31194243 -2.311003,-1.5406788 -4.321783,-2.8231317 -6.623367,-3.9739176 -2.790031,-1.3950256 -4.674314,-1.5707394 -7.285355,-3.3114258 -1.34784,-0.898572 -8.02513,-6.777457 -8.610309,-7.947835 -0.09869,-0.19747 0.156131,-0.506379 0,-0.662491 -0.349065,-0.349079 -0.883444,-0.441717 -1.32498,-0.662493 0,-0.220777 0.156104,-0.505862 0,-0.661975 -0.156131,-0.156112 -0.505857,0.156113 -0.661988,0 -1.370383,-1.370379 2.093966,0.05325 -0.66249,-1.324984 -0.197485,-0.09873 -0.506386,0.156113 -0.66249,0 -0.156131,-0.156112 0.156104,-0.505862 0,-0.661974 -0.156131,-0.156114 -0.464503,0.09873 -0.661961,0 -0.472573,-0.236279 -0.852461,-1.088706 -1.325007,-1.324985 -0.679186,-0.339598 -1.970246,-0.322378 -2.649432,-0.661975 -0.558535,-0.279263 -0.765942,-1.045719 -1.324477,-1.324983 -0.529855,-0.264933 -1.457087,0.264932 -1.986968,0 -0.279242,-0.139632 -0.366263,-0.563762 -0.662491,-0.662491 -0.453839,-0.151282 -3.694773,-0.382842 -3.973909,-0.661977 -0.15613,-0.156112 0.156104,-0.506376 0,-0.662491 -0.458893,-0.458896 -2.852526,-0.203594 -3.311419,-0.662492 -0.156131,-0.156113 0.156104,-0.505863 0,-0.661975 -0.312235,-0.312226 -1.012746,0.312224 -1.32498,0 -0.156131,-0.156111 0.156104,-0.506379 0,-0.662491 -0.312235,-0.312227 -1.012243,0.312224 -1.324478,0 -0.156104,-0.156113 0.156104,-0.506379 0,-0.662493 -0.312208,-0.312225 -0.929508,0.197471 -1.324451,0 -0.794809,-0.397397 -1.19216,-1.589561 -1.986968,-1.986958 -0.568907,-0.284458 -1.022509,-0.179747 -1.986968,-0.661977 -1.58959,-0.794795 -4.371816,0.794798 -5.961406,0 l -2.648929,-1.324983 c -0.394917,-0.197469 -1.012746,0.312225 -1.324981,0 -0.156104,-0.156112 0.09872,-0.464507 0,-0.661974 -1.378241,-2.756458 0.04593,0.707893 -1.324451,-0.662493 -0.493686,-0.49367 -0.27522,-1.406056 -0.66249,-1.986957 -0.509482,-0.764228 -1.477486,-1.222735 -1.986968,-1.98696 -0.776393,-1.164587 -1.67095,-2.995433 -2.649458,-3.973917 -0.156104,-0.156115 -0.505857,0.156112 -0.661961,0 -0.156131,-0.156115 0.156104,-0.506381 0,-0.662493 -0.156131,-0.156112 -0.506386,0.156112 -0.66249,0 -0.493395,-0.493387 -0.950251,-2.27521 -1.324478,-2.64945 -0.349091,-0.349078 -0.975889,-0.312896 -1.324981,-0.661975 -0.156104,-0.156112 0.09869,-0.465023 0,-0.662492 -1.378267,-2.756459 0.04593,0.707892 -1.324477,-0.662491 -0.156104,-0.156114 0.15613,-0.506378 0,-0.662492 -0.40386,-0.403866 -7.018311,0.309843 -7.947819,0 -2.037847,-0.679278 -3.530494,-1.764732 -5.2989161,-2.648935 -0.9619191,-0.480972 -0.755941,-2.080926 -1.3244512,-2.64945 -0.331179,-0.331163 -0.9933252,-0.331327 -1.3244777,-0.662493 -0.3122348,-0.312224 0.1974585,-0.929528 0,-1.324467 -1.3782675,-2.756455 0.045402,0.707896 -1.3249804,-0.66249 -0.1561306,-0.156112 0.1561042,-0.505865 0,-0.661977 -0.1561306,-0.156109 -0.4650317,0.09873 -0.6624902,0 -2.75645558,-1.378225 0.7083954,0.0454 -0.6619875,-1.324983 -0.1561042,-0.156115 -0.5063596,0.156112 -0.6624902,0 -2.5848997,-2.584897 0.1531673,-0.355674 -0.66249019,-1.98696 -0.35618208,-0.712406 -2.02342751,-2.998681 -2.64892891,-3.311424 -0.1974586,-0.09873 -0.506386,0.156112 -0.6624902,0 -0.383884,-0.383887 -0.9405673,-2.265566 -1.3244512,-2.64945 -0.1561307,-0.156113 -0.4650317,0.09873 -0.6625167,0 -0.9127331,-0.45638 -0.8907992,-1.553311 -1.3244512,-1.98696 -0.3490648,-0.349078 -0.9759157,-0.313413 -1.3249804,-0.662491 -0.1561307,-0.156112 0.1561041,-0.505862 0,-0.661976 -0.3490913,-0.349078 -0.9753865,-0.313413 -1.3244777,-0.662491 -0.1561042,-0.156112 0.1561041,-0.50638 0,-0.662493 -0.1561042,-0.156112 -0.5063861,0.156113 -0.6624902,0 -0.1561042,-0.156112 0.1561041,-0.506378 0,-0.66249 -1.27299,-1.272984 -1.389936,-0.792892 -1.986941,-1.98696 -0.662332,-1.324657 -2.649115,-1.986769 -3.311446,-3.311427 -0.692362,-1.384742 -1.688306,-3.194698 -2.649458,-4.636407 -0.594492,-0.891747 -2.359872,-2.835397 -3.311922,-3.311427 -0.197485,-0.09874 -0.505883,0.156112 -0.661987,0 -0.529352,-0.529363 -0.736309,-2.024126 -1.986968,-2.64945 -0.4014,-0.200708 -1.70942,-0.384951 -1.986942,-0.662493 -0.0026,-0.0016 -0.05186,-0.07839 -0.05789,-0.08682 z" /></clipPath><clipPath
       clipPathUnits="userSpaceOnUse"
       id="clipPath9"><path
         id="path9"
         style="fill:#ffffff;stroke-width:0.079375;stroke-linecap:square"
         d="m 466.27979,-92.725923 c -0.31224,0.312227 0.31223,1.012243 0,1.324467 -0.15611,0.156112 -0.50589,-0.156112 -0.66199,0 -0.31792,0.317934 -0.91443,2.238909 -1.32498,2.64945 -0.15611,0.156112 -0.50583,-0.156112 -0.66196,0 -0.30451,0.304509 -1.06458,2.12807 -1.32501,2.648934 -0.19746,0.394939 0.31224,1.012757 0,1.324983 -0.33115,0.331163 -0.99327,0.331327 -1.32445,0.662493 -0.37367,0.373695 -2.27576,4.262194 -2.64946,4.635892 -0.31223,0.312224 -1.01221,-0.312227 -1.32445,0 -0.1561,0.156112 0.0987,0.465023 0,0.662493 -1.37827,2.756455 0.0454,-0.70789 -1.32501,0.662492 -0.1561,0.156113 0.15611,0.505863 0,0.661975 -0.30617,0.30617 -1.58702,-0.199949 -1.98694,0 -0.27924,0.139631 -0.38272,0.522859 -0.66199,0.662493 -1.46899,0.734496 -5.52114,-1.102239 -6.62336,0 -0.31221,0.312221 0.31223,1.012242 0,1.324467 -0.15611,0.156109 -0.50636,-0.156112 -0.66249,0 -0.15611,0.156109 0.15613,0.506378 0,0.66249 -0.15611,0.156112 -0.50636,-0.156112 -0.66249,0 -0.15611,0.156112 0.0987,0.465026 0,0.662493 -0.61307,1.22614 -2.06256,2.1386 -2.64893,3.311424 -0.44355,0.887092 -1.58007,0.918067 -1.98697,1.324983 -0.22077,0.220776 -0.44172,1.766184 -0.66249,1.98696 -0.33118,0.331166 -0.99327,0.330811 -1.32445,0.661974 -0.2826,0.282597 -1.50879,3.495226 -1.9875,3.97392 -0.1561,0.156112 -0.46447,-0.09873 -0.66196,0 -2.75646,1.378225 0.70789,-0.0454 -0.66249,1.324983 -0.0359,0.03589 -1.95106,1.288577 -1.98697,1.324467 -0.15613,0.156113 0.0987,0.465022 0,0.662491 -0.44355,0.887095 -1.58006,0.917551 -1.98694,1.324467 -1.37041,1.370391 2.09394,-0.05324 -0.66252,1.324985 -0.19745,0.09873 -0.50585,-0.156112 -0.66196,0 -0.31223,0.312225 0.31224,1.012243 0,1.324468 -0.0359,0.03589 -1.95106,1.288576 -1.98696,1.324467 -0.22077,0.220773 -0.4417,1.766181 -0.66249,1.986957 -0.15611,0.156112 -0.50636,-0.156115 -0.6625,0 -0.33115,0.331163 -0.33131,0.993817 -0.66249,1.324983 -0.49365,0.49367 -1.40607,0.274706 -1.98696,0.661974 -0.63762,0.425069 -2.23213,0.908198 -2.64893,1.324986 -0.15611,0.156112 0.1561,0.506381 0,0.66249 -0.16468,0.164685 -4.75033,1.141598 -5.29889,1.324467 -0.99351,0.331163 -0.66231,-0.662331 -1.98697,0 -0.19748,0.09873 0.1561,0.506381 0,0.662493 -0.16865,0.168632 -4.15848,0.423016 -4.6364,0.661974 -0.77152,0.385766 -1.21544,0.939218 -1.98697,1.324983 -0.39494,0.197467 -0.9295,-0.197469 -1.32445,0 -2.33865,1.169324 -4.96448,1.488231 -7.28588,2.648935 -0.52986,0.26493 -1.45709,-0.264933 -1.98694,0 -1.13893,0.569465 -2.1725,0.75552 -3.31145,1.324985 -0.70649,0.353243 -1.94294,-0.353242 -2.64943,0 -0.27924,0.139632 -0.38325,0.522343 -0.66249,0.661975 -0.52988,0.264932 -1.45711,-0.26493 -1.98697,0 -0.63328,0.316637 -2.96772,0.981302 -3.31142,1.324983 -0.1561,0.156112 0.15611,0.50638 0,0.662492 -0.40547,0.405467 -7.04001,2.403597 -7.94784,3.311425 -0.33116,0.331166 -0.33131,0.993301 -0.66249,1.324467 -0.39365,0.393647 -0.77875,0.389647 -1.32448,0.662493 -2.75643,1.378228 0.70789,-0.04592 -0.66249,1.324467 -0.15608,0.156115 -0.50636,-0.156112 -0.66249,0 -0.15608,0.156115 0.15613,0.506381 0,0.66249 -0.22077,0.220776 -1.76617,0.441717 -1.98694,0.662493 -0.15613,0.156112 0.1561,0.505862 0,0.661974 -0.31224,0.312227 -1.01227,-0.312224 -1.32448,0 -0.33118,0.331166 -0.33134,0.99382 -0.66249,1.324986 -0.3905,0.390483 -6.86189,-0.662493 -7.94782,-0.662493 -1.09117,0 -9.90801,0.635722 -9.93481,0.662493 -0.15611,0.156112 0.1561,0.506378 0,0.66249 -0.42013,0.420124 -2.09802,-0.275725 -2.64946,0 -1.13893,0.569466 -2.17249,0.755002 -3.31142,1.324467 -0.63569,0.317839 -2.0134,-0.212021 -2.64946,0 -0.2962,0.09874 -0.36629,0.563761 -0.66249,0.662493 -0.28384,0.09462 -1.51384,-0.04731 -1.98694,0 -1.23412,0.12341 -2.46433,0.278588 -3.69798,0.410827 0.1823,0.0517 0.38656,0.09192 0.38656,0.251147 0,0.883105 -1.76636,0 -2.64946,0 -1.76622,1.766213 -4.18184,3.064801 -5.29891,5.298902 -0.0987,0.197468 0.15613,0.505864 0,0.661975 -1.37036,1.370384 0.0538,-2.093965 -1.32445,0.662492 -0.0987,0.197468 0.1561,0.506379 0,0.662491 -0.15613,0.156113 -0.46504,-0.09873 -0.66249,0 -1.03455,0.517272 -0.74401,2.02797 -1.98697,2.649451 -0.19746,0.09873 -0.50586,-0.156113 -0.66199,0 -0.15608,0.156114 0.15613,0.505863 0,0.661975 -1.37036,1.370384 0.0533,-2.093965 -1.32498,0.662492 -0.45678,0.913589 0.80195,0.592244 -0.66249,1.324467 -0.68315,0.341586 -1.51945,0.390015 -1.98694,1.324984 -0.0987,0.197468 0.15613,0.505863 0,0.6619755 -0.15611,0.1561118 -0.50589,-0.1561125 -0.66199,0 -0.76581,0.7657909 -0.90458,2.4711389 -1.32498,3.3119419 -0.27927,0.5585251 -1.04521,0.765942 -1.32448,1.3244671 -0.5212,1.0424218 -1.60766,2.8360872 -1.98694,3.9739178 -0.13962,0.41889388 0.10708,0.89661417 0,1.32498357554 C 315.02935,0.9580617 314.18385,1.6912697 313.94437,2.6491328 c -0.39928,1.597247 -0.36885,2.2121762 -0.66249,3.9739176 -0.11477,0.6886572 -0.44169,1.325146 -0.66249,1.9874756 -0.22077,0.2207766 -0.5638,0.3657723 -0.66249,0.661975 -0.20944,0.628341 0.29623,1.394553 0,1.986959 -0.13962,0.279262 -0.56327,0.366289 -0.66196,0.662492 -0.42,1.259886 -0.0929,3.497175 -0.66249,4.636409 -0.47815,0.956265 -0.84635,1.693185 -1.32448,2.64945 -0.19748,0.394937 0.19746,0.92953 0,1.324467 -0.48101,0.962 -1.01962,1.427965 -1.325,2.649452 -0.10711,0.428368 0.19748,0.929529 0,1.324466 -0.0987,0.197468 -0.50586,-0.156113 -0.66196,0 -0.77121,0.771218 -1.67061,4.69558 -1.98697,5.960877 -0.51303,2.052213 0.66577,4.62606 0,6.623367 -0.0987,0.296202 -0.58677,0.35959 -0.66249,0.662493 -0.51959,2.07849 0,5.09169 0,7.285345 0,4.551627 -0.78391,13.300926 0,17.220652 0.0612,0.306162 0.5638,0.366292 0.66249,0.662493 0.77015,2.31032 0,6.152118 0,8.610327 0,3.562083 -0.84942,18.646193 0,21.194569 0.64968,1.948945 1.02081,3.835294 1.32448,5.960878 0.37248,2.607323 0.21989,5.738673 1.32445,7.947833 0.44156,0.88311 -0.44154,2.42832 0,3.31143 0.87225,1.74448 1.11828,3.56156 1.98696,5.2989 0.63485,1.26959 0.21834,3.3039 0.66252,4.6364 0.0987,0.2962 0.52282,0.38273 0.66249,0.66199 0.2649,0.52986 -0.26498,1.4571 0,1.98696 0.4781,0.95626 0.84632,1.69318 1.32445,2.64945 0.19749,0.39492 -0.31221,1.01274 0,1.32497 0.15613,0.15612 0.50639,-0.15612 0.66249,0 0.31224,0.31222 -0.13962,0.90558 0,1.32447 0.65585,1.96746 1.13091,3.58627 1.98697,5.29838 0.19746,0.39495 -0.19746,0.93005 0,1.32499 0.45011,0.90021 1.53683,1.74923 1.98694,2.64945 0.46191,0.92375 0.20064,2.38767 0.66252,3.31143 0.659,1.31797 1.80938,2.29476 2.64893,3.97391 0.19997,0.3999 -0.30615,1.68079 0,1.98696 0.15613,0.15611 0.50638,-0.1561 0.66249,0 0.45892,0.4589 0.20357,2.85304 0.66249,3.31195 0.15613,0.1561 0.50586,-0.15612 0.66196,0 0.31223,0.31221 -0.19746,0.92952 0,1.32447 0.27927,0.55851 1.04571,0.76595 1.32498,1.32446 0.19746,0.39495 -0.19746,0.93005 0,1.32499 0.90583,1.81163 1.74363,3.48674 2.64946,5.29838 0.19746,0.39494 -0.31224,1.01275 0,1.32499 0.1561,0.1561 0.56327,-0.19748 0.66199,0 0.19745,0.39493 -0.19749,0.92952 0,1.32447 0.0987,0.19746 0.50636,-0.15613 0.66249,0 0.58726,0.58726 2.1505,4.96292 2.64943,5.96086 0.27929,0.55853 1.04521,0.76594 1.32448,1.32447 0.0987,0.19747 -0.15611,0.50638 0,0.66249 0.15613,0.15611 0.50638,-0.15611 0.66249,0 0.38388,0.38389 0.94059,2.26557 1.32447,2.64945 0.15611,0.15611 0.50639,-0.15611 0.66249,0 0.15611,0.15611 -0.12247,0.47879 0,0.66249 0.58881,0.8832 2.15652,1.66304 2.64946,2.64894 0.51731,1.03464 0.87553,2.85161 1.32445,3.97392 0.29565,0.73909 1.07276,1.2323 1.32448,1.98747 0.13965,0.4189 -0.0866,0.89149 0,1.32447 0.13692,0.6846 0.44172,1.32464 0.66249,1.98696 0.2208,0.22078 0.5638,0.36629 0.66249,0.66249 0.13965,0.4189 -0.19746,0.92953 0,1.32447 0.0987,0.19747 0.56327,-0.19746 0.66196,0 0.35325,0.70648 -0.35324,1.94297 0,2.64945 0.65937,1.31876 1.96202,2.59903 2.64946,3.97391 0.27829,0.55662 0.27755,2.26452 0.66249,2.64945 0.1561,0.15611 0.50636,-0.15611 0.66249,0 0.24244,0.24244 0.45932,6.47477 0.66199,7.28535 0.32184,1.28741 1.3793,2.09661 1.98694,3.31194 0.19751,0.39494 0,0.88292 0,1.32447 0,0.22077 -0.0987,0.46502 0,0.66249 1.35779,2.71557 1.87637,6.40116 3.31195,9.27231 0.35599,0.71197 0.96848,1.27497 1.32447,1.98696 0.19746,0.39493 -0.13964,0.90607 0,1.32497 0.56404,1.6921 1.69744,3.20784 2.64946,4.63591 0.92663,1.38997 0.85752,2.57361 1.32445,3.97442 0.33724,1.01166 1.93683,4.22943 2.64946,5.2984 0.52285,0.78427 1.70045,1.78993 1.98697,2.64945 0.13962,0.41889 -0.13965,0.90556 0,1.32445 0.32787,0.98364 2.83377,3.38827 3.31142,5.29891 0.30885,1.23546 0.2531,2.74576 0.66249,3.97392 0.46363,1.39089 1.52331,2.58302 1.98694,3.97391 0.43815,1.31442 0.22998,2.67636 0.66249,3.97392 0.60047,1.80142 2.72071,3.52617 3.31145,5.29838 0.13962,0.41891 -0.13965,0.90609 0,1.32498 0.25172,0.75518 1.72418,0.78817 1.32498,1.98696 0.37912,1.51656 0.66196,3.02227 0.66196,4.63641 0,0.62791 -0.27501,2.09889 0,2.64896 0.699,1.3979 1.22899,3.12044 1.98697,4.6364 0.32853,0.65709 1.0963,1.30093 1.32498,1.98696 0.54364,1.63095 0.54125,2.40747 1.32447,3.97391 1.32438,2.64875 -1.50143,14.13103 -1.98696,16.55869 -0.65247,3.26226 -0.90813,6.60402 -1.32448,9.93478 -0.37497,2.9999 -2.07973,5.7617 -2.64943,8.61031 -0.12991,0.6495 0,1.32464 0,1.98697 0,0.44154 0.0866,0.89151 0,1.32448 -0.84802,4.24008 -1.80615,8.36768 -2.64946,12.58424 -0.42312,2.11551 0.52237,4.53385 0,6.62337 -1.79599,7.18394 -0.39746,15.10289 -1.32448,22.51903 -0.0866,0.69276 -0.57589,1.29421 -0.66249,1.98697 -0.21905,1.75257 0.34642,3.56698 0,5.29889 -0.0968,0.48408 -0.60129,0.8346 -0.66249,1.32448 -0.73983,5.91865 0,12.56196 0,18.54565 0,4.47529 0.63222,9.48333 0,13.90869 -0.1592,1.11443 -0.52231,2.19435 -0.66196,3.31142 -0.20399,1.63198 0.39828,3.70568 0,5.29889 -0.23516,0.94068 -0.66249,0.77269 -0.66249,2.64946 0,3.61566 -0.58986,7.72017 0,11.25926 0.55414,3.32479 1.5,9.23423 0.66249,12.58425 -0.39301,1.57202 -0.93194,3.06419 -1.32498,4.63643 -0.46958,1.87827 0.24146,2.82948 -0.66199,4.63639 -0.27125,0.54251 0.10118,2.14353 0,2.64946 -0.13692,0.68459 -0.44172,1.32461 -0.66249,1.98694 -0.22079,0.2208 -0.5638,0.36579 -0.66249,0.66199 -0.13965,0.41892 0.10708,0.89662 0,1.32498 -0.33867,1.35464 -1.05063,2.60472 -1.32445,3.97391 -0.17322,0.86596 0.12486,1.77525 0,2.64946 -0.50726,3.55055 -1.57763,9.58572 -0.66252,13.24621 0.69723,2.78894 0.84244,5.71505 1.32501,8.61033 0.93165,5.59001 0.59563,-0.66482 1.32445,6.62337 0.25752,2.57535 0,5.3613 0,7.94784 0,2.61104 0.75756,7.66263 0,9.93532 -0.8564,2.56918 -0.28419,4.63714 -0.66249,7.28533 -0.28744,2.01207 -0.92498,3.96332 -1.32445,5.96087 -0.42394,2.11977 0.0275,3.89078 -0.66252,5.96088 -0.50297,1.50895 0.70477,3.88938 0,5.29889 -1.10966,2.21933 0.0505,3.82336 -0.66196,5.96091 -0.1561,0.46831 -0.54276,0.84603 -0.66249,1.32498 -0.36364,1.45452 0.36365,3.18137 0,4.63589 -0.0757,0.3029 -0.5638,0.36629 -0.66249,0.66249 -0.20203,0.60614 -0.28506,8.70268 0,9.2728 1.51559,3.03123 -0.27419,-2.81056 1.32498,1.98697 0.29861,0.8958 -0.61933,3.35457 0,3.97391 0.15611,0.1561 0.46451,-0.0987 0.66196,0 2.75646,1.37827 -0.70789,-0.0459 0.66252,1.32448 0.15608,0.1561 0.46498,-0.0987 0.66249,0 0.71197,0.35599 1.35014,0.84735 1.98694,1.32498 0.97782,0.73337 1.72104,2.38299 1.98697,2.64893 0.15613,0.1561 0.56327,-0.19749 0.66196,0 0.26059,0.52115 -0.44159,2.87035 0,3.31194 0.15613,0.15613 0.50639,-0.1561 0.66249,0 1.18438,1.18438 0.0949,2.17633 0.66249,3.31142 0.90466,1.80936 2.12045,3.18286 2.64946,5.29892 0.0729,0.29178 0.51109,3.21082 0.66199,3.31142 0.63783,0.42524 4.19478,1.17724 4.6364,1.32448 2.17998,0.72662 4.32866,2.267 6.62336,2.64943 3.65477,0.60912 7.5256,0.70212 11.25977,1.32448 2.41985,0.4033 4.86553,1.58416 7.28536,1.98747 5.08023,0.84669 10.12428,2.40974 15.2337,3.31142 7.80613,1.37755 3.75258,-0.0444 10.59728,1.32447 0.6846,0.13692 1.32463,0.44172 1.98696,0.66249 0.44157,0.2208 0.84553,0.54277 1.32445,0.66249 2.07627,0.51906 4.52327,-0.42002 6.62337,0 0.48411,0.0968 0.84093,0.56518 1.32501,0.66196 3.26178,0.65239 7.29535,-0.13202 10.59677,0 3.97693,0.15912 7.94991,0.41426 11.92226,0.66252 5.96567,0.37285 11.90866,1.12533 17.88263,1.32445 6.30396,0.21013 13.46589,-0.60992 19.8701,0 10.57082,1.00674 7.29674,1.65666 17.22065,1.98747 6.84027,0.22799 13.69237,-0.24429 20.53209,0 10.8073,0.386 21.62241,1.15435 32.45434,0.66199 7.0824,-0.32194 14.10965,-1.73395 21.19456,-1.98697 3.75081,-0.13396 7.51255,0.22043 11.25929,0 31.31629,-1.84213 -0.12613,-0.65175 15.89617,-1.98694 5.32,-0.44333 12.12368,-0.37751 17.22014,0 6.88337,0.50988 13.72621,2.29098 20.53259,3.31192 10.12732,1.51908 3.10343,0.028 13.24623,0.66199 1.3403,0.0838 2.63615,0.55097 3.97444,0.66249 5.60853,0.46736 11.62074,0 17.22014,0 1.91574,0 13.63419,-0.38751 15.23368,-1.98697 0.46834,-0.46834 0,-1.32461 0,-1.98694 0,-2.98556 0.48733,-6.34876 0,-9.27282 -0.11478,-0.68866 -0.52557,-1.30236 -0.66249,-1.98697 -0.56317,-2.81586 0,-6.41707 0,-9.27283 v -19.86957 c 0,-4.69374 0.161,1.12435 -0.66196,-4.63643 -0.53115,-3.71803 0.47979,-6.55613 1.32445,-9.93478 0.15541,-0.62169 -0.40976,-2.23967 0,-2.64943 0.1561,-0.15616 0.50636,0.15607 0.66249,0 0.1561,-0.15616 -0.15613,-0.50639 0,-0.6625 0.46704,-0.46706 3.29681,-1.6484 3.97391,-1.98696 1.04857,-0.5243 1.6696,-1.9957 2.64945,-2.64893 1.34626,-0.89749 2.62393,-0.97444 3.97394,-1.98697 1.21285,-0.90961 2.04745,-2.4693 3.31142,-3.31195 1.95876,-1.30582 4.23937,-2.2524 5.96088,-3.97391 0.34909,-0.34906 0.31342,-0.97538 0.66249,-1.32448 0.15613,-0.1561 0.47879,0.12248 0.66249,0 1.42473,-0.9498 2.41215,-2.53108 3.97391,-3.31192 0.39494,-0.19751 0.90556,0.13962 1.32447,0 1.32631,-0.44212 2.14392,-1.59763 3.31195,-1.98696 1.27876,-0.42625 8.71599,0.55633 9.2723,0 0.15613,-0.15611 -0.15611,-0.50639 0,-0.66249 0.15613,-0.15611 0.50639,0.1561 0.66249,0 0.10321,-0.10322 0.10321,-2.54569 0,-2.64893 -0.1561,-0.15611 -0.50636,0.15613 -0.66249,0 -0.44154,-0.44154 0.44156,-2.20793 0,-2.64946 -0.8831,-0.8831 -0.66199,1.10371 -0.66199,-0.66249 0,-1.37658 -0.0456,-0.7076 -0.66249,-1.32448 -0.46834,-0.46834 0.16066,-1.3444 0,-1.98697 -0.23945,-0.95784 -1.085,-1.69158 -1.32445,-2.64943 -0.19264,-0.7706 0.25583,-1.88198 0,-2.64946 -0.15613,-0.46834 -0.44172,-0.88289 -0.66249,-1.32445 0,-0.44156 0.13962,-0.90559 0,-1.32448 -0.0987,-0.2962 -0.5638,-0.36629 -0.66249,-0.66249 -0.20947,-0.62833 0.2962,-1.39454 0,-1.98696 -0.80441,-1.60878 -0.28572,-2.5589 -0.66199,-3.31142 -1.64769,-3.29536 -1.44573,-7.64863 -2.64946,-11.25977 -0.25582,-0.76748 0.19265,-1.87889 0,-2.64946 -0.3049,-1.21957 -0.97943,-2.27483 -1.32498,-3.31142 -0.54797,-1.64399 0.18328,-1.62139 -0.66196,-3.31195 -0.27575,-0.55144 0.42011,-2.22932 0,-2.64945 -0.15613,-0.15611 -0.50636,0.15613 -0.66249,0 -0.44156,-0.44154 0.44154,-2.2074 0,-2.64893 -0.15613,-0.15613 -0.5638,0.19746 -0.66249,0 -0.68273,-1.36528 -0.32131,-3.8227 -0.66199,-5.29889 -1.01163,-4.38386 -2.75751,-8.32686 -3.9739,-12.58425 -0.12132,-0.42457 0.13962,-0.90559 0,-1.32448 -0.0987,-0.2962 -0.56381,-0.36628 -0.66249,-0.66249 -0.34481,-1.03438 -0.20371,-3.71885 -0.66252,-4.63639 -0.68305,-1.36615 -1.35189,-2.70386 -1.98694,-3.97394 -0.19746,-0.39494 0.19748,-0.92953 0,-1.32448 -0.32854,-0.65706 -1.09575,-1.30088 -1.32448,-1.98694 -0.20942,-0.62833 0.29623,-1.39454 0,-1.98697 -2.49812,-4.99626 -2.64816,-11.91921 -5.29889,-17.22064 -0.26493,-0.52988 0.26493,-1.45712 0,-1.98697 -1.23836,-2.47671 -2.39141,-5.18774 -3.31142,-7.94782 -0.18621,-0.55859 0.26154,-1.46394 0,-1.98697 -0.13962,-0.27926 -0.5638,-0.36629 -0.66249,-0.66249 -0.40053,-1.20155 -0.35272,-2.73476 -0.66249,-3.97391 -0.50181,-2.00712 -1.12382,-4.23457 -1.98697,-5.96087 -0.26492,-0.52986 0.26493,-1.45709 0,-1.98697 -0.13964,-0.27924 -0.56327,-0.36629 -0.66199,-0.66249 -0.27926,-0.83778 0.21419,-1.79274 0,-2.64946 -0.77393,-3.09573 -1.31894,-7.27377 -2.64945,-9.93479 -0.29618,-0.5924 0.16068,-1.3444 0,-1.98696 -0.24146,-0.96584 -2.63943,-9.26272 -2.64943,-9.2728 -0.15614,-0.15611 -0.50589,0.1561 -0.66199,0 -0.65117,-0.65117 0.43106,-3.11182 0,-3.97394 -1.22005,-2.44012 0.0103,-5.25663 -0.66249,-7.94782 -0.46091,-1.84356 -0.86408,-3.45532 -1.32498,-5.29891 -0.18632,-0.74523 0.33954,-1.96985 0,-2.64893 -1.01928,-2.03854 -1.00563,-4.66069 -1.98697,-6.62337 -0.44154,-0.8831 0.44156,-2.42885 0,-3.31195 -0.90583,-1.81165 -1.7431,-3.4867 -2.64893,-5.29839 -0.2649,-0.52982 0.26498,-1.45706 0,-1.98694 -0.84246,-1.68494 -3.11764,-2.92385 -3.97391,-4.63642 -1.12704,-2.25409 5.52461,-2.87512 5.96088,-3.31142 0.8831,-0.8831 -1.10424,-0.66249 0.66196,-0.66249 0.94022,0 10.16749,-3.54415 10.5973,-3.97394 0.15611,-0.15613 -0.0987,-0.465 0,-0.66249 0.73221,-1.46441 0.41138,-0.20568 1.32498,-0.66249 0.79478,-0.39738 1.19219,-1.58954 1.98697,-1.98694 2.00623,-1.00311 4.57835,-1.62642 6.62337,-2.64893 0.55851,-0.27924 0.76591,-1.04574 1.32445,-1.32501 1.52858,-0.7643 3.69771,-1.18633 5.29892,-1.98694 0.95625,-0.47813 1.69264,-0.84635 2.64892,-1.32447 0.39492,-0.19746 0.93007,0.19745 1.32498,0 2.01981,-1.00992 -1.21139,-0.52539 1.98697,-1.32498 1.61309,-0.40328 1.90971,0.0389 3.31142,-0.66197 0.80915,-0.40457 3.26536,0.14172 3.97391,0 2.5713,-0.51424 9.04169,-2.86488 11.25977,-3.97393 1.56866,-0.78433 8.56445,0 10.5973,0 1.29649,0 1.29465,-0.3238 2.64945,-0.66249 1.84425,-0.46106 4.09361,0.3112 5.96088,0 1.84248,-0.30708 2.00131,-0.88778 3.31142,-1.32445 0.41889,-0.13968 0.88345,0 1.32499,0 0.22079,0 0.45253,0.0698 0.66197,0 2.35876,-0.78629 4.27962,-1.20571 6.62337,-1.98697 0.62834,-0.20945 1.34442,0.16065 1.98696,0 0.874,-0.21849 4.85856,-1.54713 5.2989,-1.98747 0.15611,-0.15611 -0.15613,-0.50586 0,-0.66199 0.15611,-0.1561 0.50585,0.15613 0.66198,0 0.15611,-0.1561 -0.0987,-0.46503 0,-0.66249 1.37827,-2.75648 -0.0454,0.70789 1.32498,-0.66249 0.1561,-0.15613 -0.0987,-0.46453 0,-0.66199 0.27924,-0.55853 0.97811,-0.80539 1.32447,-1.32498 0.38727,-0.58089 0.16883,-1.49328 0.66249,-1.98694 0.15613,-0.1561 0.50586,0.15611 0.66197,0 0.31223,-0.31223 -0.31221,-1.01224 0,-1.32448 0.15613,-0.1561 0.50639,0.15613 0.6625,0 0.0972,-0.0971 0.3185,-5.61689 0.66249,-5.96087 0.1561,-0.15611 0.50639,0.15613 0.66249,0 0.31224,-0.31224 -0.19746,-0.93004 0,-1.32498 1.09556,-2.19112 1.15122,-4.77811 1.98696,-7.28533 0.26492,-0.79484 -0.26493,-1.85465 0,-2.64947 0.0987,-0.2962 0.56327,-0.36628 0.66197,-0.66249 0.20944,-0.62833 -0.20945,-1.35859 0,-1.98696 0.3085,-0.92548 0.9237,-2.50885 1.32499,-3.31143 0.32853,-0.65709 1.09578,-1.3009 1.32446,-1.98696 0.36742,-1.10223 0.23342,-2.23923 0.6625,-3.31194 0.23929,-0.59823 2.51939,-3.58531 2.64893,-3.97392 0.31957,-0.9587 0.2269,-1.77777 0.66249,-2.64892 0.13962,-0.27926 0.58679,-0.35959 0.66249,-0.6625 0.26773,-1.07091 -0.34909,-2.2647 0,-3.31194 0.0987,-0.2962 0.56379,-0.36577 0.66249,-0.66197 0.82843,-2.4853 0,-8.46019 0,-11.25979 0,-1.55464 0.74131,-6.46523 0,-7.94782 -0.77005,-1.5401 -1.21742,-3.09633 -1.98747,-4.63641 -0.19745,-0.39493 0.13962,-0.90559 0,-1.32448 -0.54615,-1.63843 -1.55482,-2.90785 -1.98696,-4.6364 -0.0535,-0.2142 0.15613,-0.50639 0,-0.66249 -0.1561,-0.15612 -0.50584,0.1561 -0.66197,0 -0.68649,-0.6865 -1.1094,-5.74534 -1.32499,-5.96088 -0.1561,-0.15612 -0.50587,0.15611 -0.66197,0 -0.26604,-0.26602 0.12486,-1.61236 0,-1.98696 -0.15613,-0.46834 -0.44173,-0.88292 -0.6625,-1.32447 -0.2208,-0.22078 -0.56379,-0.36629 -0.66249,-0.66249 -0.54367,-1.63094 -0.54124,-2.40747 -1.32446,-3.97392 -0.25582,-0.51164 -0.97405,-4.24766 -1.32447,-5.2989 -0.33115,-0.9935 0.33115,-2.31793 0,-3.31143 -0.0987,-0.29619 -0.56379,-0.36629 -0.66249,-0.66249 -0.21201,-0.63605 0.31784,-2.01377 0,-2.64945 -0.3974,-0.79479 -1.58956,-1.19216 -1.98696,-1.98696 -0.0987,-0.19746 0.15613,-0.50585 0,-0.66197 -1.37037,-1.37038 0.0533,2.09396 -1.32499,-0.6625 -0.40891,-0.81786 -0.91555,-1.83159 -1.32446,-2.64945 -0.39741,-0.7948 -1.58955,-1.19217 -1.98696,-1.98696 -0.0987,-0.19747 0.15611,-0.50586 0,-0.66197 -0.1561,-0.1561 -0.50639,0.15611 -0.66249,0 -0.1561,-0.1561 0.1561,-0.50638 0,-0.66249 -0.1561,-0.15611 -0.50588,0.15611 -0.66198,0 -0.38389,-0.38388 -0.9411,-2.26556 -1.32498,-2.64945 -0.0359,-0.0359 -1.95106,-1.28857 -1.98696,-1.32447 -0.1561,-0.1561 0.0987,-0.46502 0,-0.66249 -0.22603,-0.45207 -4.86884,-5.67451 -5.29839,-5.96088 -1.47482,-0.98322 -7.85744,-7.10457 -8.61032,-8.61033 -0.19745,-0.39494 0.13962,-0.90557 0,-1.32445 -0.35586,-1.0676 -2.13857,-1.62772 -2.64945,-2.64945 -2.20083,-4.40167 -5.29584,-7.94376 -7.94785,-11.92176 -1.16191,-1.74288 -3.70729,-2.77817 -4.6364,-4.63641 -0.31223,-0.62446 0.79672,-1.6534 -0.66249,-1.98696 -0.37467,-0.49956 -1.04521,-0.76647 -1.32447,-1.32499 -0.46332,-0.92663 -1.08845,-5.44338 -1.32446,-6.62337 -0.25257,-1.26293 -1.50987,-2.1187 -1.98696,-3.31141 -1.13874,-2.84689 -2.61626,-5.23148 -3.97444,-7.94785 -0.47506,-0.95009 -0.65429,-2.30668 -1.32445,-3.31193 -2.13101,-3.1965 -4.28863,-6.15932 -6.62337,-9.27231 -0.5924,-0.78988 -0.77682,-1.82793 -1.32448,-2.64945 -0.4871,-0.73065 -1.59573,-1.2045 -1.98697,-1.98696 -0.0987,-0.19746 0.15611,-0.50638 0,-0.66249 -0.1561,-0.15612 -0.50638,0.15611 -0.66249,0 -0.65815,-0.65816 -4.25979,-5.207653 -4.6364,-5.960874 -1.34908,-2.698152 -0.8196,-5.613093 -1.98696,-7.947837 -0.2962,-0.592405 0.20944,-1.358617 0,-1.986957 -0.58735,-1.761998 -1.87108,-3.352993 -2.64946,-5.2989 -0.84611,-2.115312 -1.00447,-4.658461 -1.98694,-6.623371 -0.13962,-0.279262 -0.56327,-0.365773 -0.66199,-0.661974 -0.13962,-0.418893 0.13967,-0.906089 0,-1.324983 -0.0987,-0.296204 -0.52287,-0.382714 -0.66249,-0.661977 -1.42462,-2.849234 -2.54929,-6.423583 -3.97391,-9.272817 -0.75247,-1.504932 -1.94239,-3.222279 -2.64946,-4.63641 -0.41889,-0.837788 -1.42494,-1.237618 -1.98694,-1.98696 -0.63937,-0.852488 -0.92482,-1.849597 -1.32448,-2.648932 -0.41891,-0.83779 -1.42496,-1.238136 -1.98697,-1.987476 -0.63042,-0.84056 -3.23392,-5.882918 -3.31192,-5.960877 -0.15613,-0.156112 -0.50585,0.156115 -0.66198,0 -0.15611,-0.156112 0.0987,-0.464508 0,-0.661974 -0.27925,-0.558528 -1.04574,-0.766459 -1.32498,-1.324983 -0.0987,-0.197469 0.1561,-0.505863 0,-0.661977 -0.3491,-0.349078 -0.97542,-0.313412 -1.32448,-0.66249 -2.5849,-2.584895 0.15314,-0.355675 -0.66249,-1.98696 -0.27927,-0.558525 -1.04519,-0.766459 -1.32445,-1.324983 -0.68403,-1.368052 -0.97912,-3.292108 -1.98697,-4.635895 -0.37468,-0.499559 -0.97859,-0.80541 -1.32498,-1.324983 -0.24493,-0.367395 0.19748,-0.929529 0,-1.324467 -1.03008,-2.060188 -1.64743,-4.620295 -2.64893,-6.623367 -0.26498,-0.529865 0.2649,-1.457097 0,-1.98696 -0.49972,-0.9994 -0.9131,-1.413812 -1.32498,-2.649451 -0.13965,-0.418893 0.19746,-0.92953 0,-1.324467 -1.48228,-2.964515 -4.11827,-4.521942 -5.96088,-7.285859 -0.54766,-0.821518 -0.62632,-1.950777 -1.32448,-2.648934 -0.15613,-0.156112 -0.50638,0.156113 -0.66249,0 -0.22079,-0.220776 -0.44172,-1.7661824 -0.66249,-1.986959 -0.31223,-0.312225 -1.01227,0.312225 -1.32447,0 -0.15611,-0.1561126 0.1561,-0.5063792 0,-0.6624919 -0.49369,-0.4936712 -1.3625,-0.3502669 -1.98697,-0.6624919 -3.08343,-1.5417236 -6.2052,-2.4401114 -9.2728,-3.9739176 -0.81418,-0.4070916 -1.83473,-0.2554002 -2.64893,-0.6624918 -2.16315,-1.081578 -4.34009,-3.0606023 -6.62337,-3.9739175 -0.41,-0.1639887 -0.90606,0.1396312 -1.32498,0 -0.2962,-0.098734 -0.44119,-0.4411988 -0.66199,-0.6619753 l -2.64945,-0.6624918 c -3.96963,-1.3232058 1.66343,0.1694849 -2.64946,-1.9869589 -0.39495,-0.1974689 -0.89607,0.1070922 -1.32445,0 -2.3812,-0.595299 -4.6395,-2.320005 -6.62337,-3.3119419 -1.2977,-0.6488539 -3.25332,-0.8634421 -4.6364,-1.3244669 -1.43965,-0.479884 -2.75455,-1.3772635 -3.97394,-1.9869595 -0.39494,-0.197468 -0.92953,0.197469 -1.32445,0 -0.27929,-0.139631 -0.36631,-0.563762 -0.66249,-0.662492 -0.62833,-0.209447 -1.39456,0.296203 -1.98697,0 -1.18639,-0.593203 -2.74007,-0.707537 -3.97393,-1.324467 -4.82838,-2.414191 -9.73235,-4.203952 -14.57119,-6.623367 -1.88317,-0.941592 -0.97573,-0.313222 -2.64946,-1.98696 -0.39494,-0.19747 -0.92953,0.197469 -1.32447,0 -0.19746,-0.09873 0.1561,-0.506379 0,-0.662491 -0.1252,-0.12519 -2.48542,-1.283467 -2.64943,-1.324467 -0.42836,-0.107093 -0.8966,0.10709 -1.32498,0 -0.47893,-0.119734 -0.88295,-0.441716 -1.32448,-0.662493 -0.2208,-0.220776 -0.36629,-0.563245 -0.66249,-0.661974 -0.41892,-0.139634 -0.92954,0.197467 -1.32448,0 -0.19749,-0.09873 0.1561,-0.506381 0,-0.662493 -0.17973,-0.179721 -2.93116,-1.229407 -3.31142,-1.324467 -0.64254,-0.160639 -1.35858,0.209447 -1.98694,0 -2.8634,-0.954466 -5.94844,-2.643489 -8.61034,-3.974433 -2.75645,-1.378228 0.7079,0.04592 -0.66249,-1.324467 -0.92056,-0.920565 -2.94248,-1.471232 -3.97393,-1.98696 -3.26888,-1.634435 1.94389,0.309967 -1.32498,-1.324467 -0.19746,-0.09873 -0.50586,0.156112 -0.66196,0 -0.15611,-0.156112 0.1561,-0.506376 0,-0.66249 -0.15611,-0.156112 -0.50639,0.156114 -0.66249,0 -0.22077,-0.220777 -0.4417,-1.766181 -0.66249,-1.98696 -0.40691,-0.406916 -1.54342,-0.437888 -1.98697,-1.324983 -0.20069,-0.40141 -0.38444,-1.709418 -0.66196,-1.98696 -1.37036,-1.370386 0.0532,2.094484 -1.32501,-0.661975 -0.3416,-0.683172 -0.38949,-1.519475 -1.32445,-1.98696 -0.19749,-0.09873 -0.50639,0.156113 -0.66249,0 -0.38389,-0.383886 -0.94057,-2.265566 -1.32448,-2.64945 -0.1561,-0.156114 -0.50639,0.156112 -0.66249,0 -0.31221,-0.312227 0.13965,-0.905573 0,-1.324467 -0.36618,-1.098576 -1.32445,-2.249596 -1.32445,-3.311943 0,-0.662329 0.46834,-1.518618 0,-1.986957 -0.15613,-0.156112 -0.59269,0.209447 -0.66249,0 -0.18251,-0.547516 0.35171,-2.607948 0,-3.311425 -1.76218,-3.524324 -2.67822,-7.372611 -3.97394,-11.25978 -0.2649,-0.794795 0.26493,-1.854655 0,-2.64945 -0.387,-1.160976 -0.55168,-2.354524 -0.76377,-3.541903 -0.0308,0.0884 -0.0662,0.175379 -0.0889,0.266134 -0.0243,0.09746 -0.39841,1.888799 -0.49663,1.98696 -0.039,0.03903 -0.14075,-0.04937 -0.16536,0 -0.0564,0.11272 -0.12298,0.950846 -0.16587,0.993738 -0.039,0.03903 -0.12636,-0.03903 -0.16536,0 -0.0765,0.07654 0.05,0.396629 0,0.49661 -0.47332,0.946642 -0.64056,2.251839 -0.99375,3.311427 -0.0465,0.139641 0.0654,0.366365 0,0.497125 -0.30467,0.609325 -0.34867,1.360392 -0.66199,1.98696 -0.1919,0.383786 0.10533,1.068586 0,1.489832 -0.17208,0.688398 -0.33123,1.419114 -0.33123,2.15284 v 0.662491 c -0.0552,0.05519 -0.14129,0.09132 -0.16587,0.165364 -0.1307,0.392041 0.0812,0.918395 0,1.324467 -0.0241,0.121023 -0.13549,0.211513 -0.16539,0.331245 -0.0536,0.214188 0.0535,0.44831 0,0.662493 -0.11271,0.450879 -0.18277,0.879107 -0.33123,1.324467 -0.0524,0.157086 0.0402,0.336489 0,0.497129 -0.0299,0.119731 -0.14126,0.209706 -0.16536,0.330729 -0.20347,1.017444 0,2.278837 0,3.311943 v 3.14606 0.827857 c 0,0.03036 -0.0127,0.07335 -0.0185,0.109553 0.10264,-0.127246 0.18397,-0.208391 0.18397,-0.109553 0,0.07806 -0.0873,0.165365 -0.16537,0.165365 -0.0249,0 -0.0233,-0.02619 -0.0185,-0.05581 -0.10292,0.127664 -0.22751,0.301938 -0.31265,0.387057 -0.0816,0.0816 -1.18296,0.520985 -1.32446,0.662492 -0.039,0.03903 0.039,0.126334 0,0.165365 -0.34255,0.342593 0.0132,-0.523235 -0.33125,0.165881 -0.24371,0.487277 0.3833,-0.217922 -0.16587,0.331245 -0.44667,0.44669 -0.81338,1.149088 -1.32448,1.489831 -0.73607,0.49071 -1.539,0.769517 -2.3182,1.159103 -0.30406,0.152035 -0.54978,0.477112 -0.82785,0.662493 -0.0459,0.03061 -0.1269,-0.03903 -0.1659,0 -0.0873,0.08727 -0.0969,0.228555 -0.16536,0.331245 -0.17793,0.266885 -1.49466,1.294199 -1.82158,1.490347 -0.40965,0.245783 -0.77957,0.543187 -1.15911,0.827858 -0.29771,0.223282 -0.63349,0.873313 -0.99322,0.993219 -0.44712,0.149037 -0.55983,0.06322 -0.99375,0.497129 -0.039,0.03903 0.039,0.126335 0,0.165364 -0.12938,0.12941 -0.49808,0.110736 -0.66196,0.165365 -0.14811,0.04937 -0.20135,0.244657 -0.33126,0.331247 -0.2513,0.167537 -0.59031,0.212485 -0.82785,0.331246 -0.3737,0.186856 -0.781,0.53645 -1.15909,0.66249 -0.67744,0.225808 -3.66493,0.532773 -4.47106,0.331247 -0.69612,-0.174034 -1.2908,-0.488457 -1.98694,-0.662492 -0.63498,-0.158682 -1.35276,-0.0068 -1.98697,-0.165365 -0.60016,-0.15004 -1.22097,-0.347107 -1.82108,-0.497126 -0.16062,-0.04016 -0.34004,0.05236 -0.49712,0 -0.85154,-0.283842 -1.51598,-0.592116 -2.3182,-0.993222 -0.0987,-0.04937 -0.23895,0.06123 -0.33073,0 -0.32676,-0.217831 -0.50482,-0.447122 -0.82788,-0.662492 -0.14523,-0.09681 -0.37367,-0.04195 -0.4971,-0.165365 -0.0873,-0.08727 -0.097,-0.228555 -0.16539,-0.331245 -0.0779,-0.116888 -1.02669,-0.905489 -1.15909,-0.993738 -0.47194,-0.314637 -0.99118,-0.743641 -1.49034,-0.993222 -0.40786,-0.203912 0.14962,0.480343 -0.49663,-0.165881 -0.039,-0.03903 0.0459,-0.134744 0,-0.165364 -0.1452,-0.09682 -0.34049,-0.08782 -0.49659,-0.165881 -0.53364,-0.266821 -1.18131,-0.676613 -1.65624,-0.993222 -0.2208,-0.147201 -0.4155,-0.539255 -0.66196,-0.662493 -0.65593,-0.327956 -1.14089,-0.916035 -1.82161,-1.324467 -1.60239,-0.96144 -3.27424,-1.631106 -4.80176,-2.64945 -0.0778,-0.05185 -0.41881,-0.113514 -0.49662,-0.165364 -0.94454,-0.629693 -1.46614,-0.981374 -2.4841,-1.490348 -0.13962,-0.06982 -0.18629,-0.273264 -0.33123,-0.331245 -0.60576,-0.242298 -0.55411,-0.03852 -0.99324,-0.331248 -0.43426,-0.289507 -0.87077,-0.766138 -1.32498,-0.993219 -0.47911,-0.239565 -0.8055,-0.324136 -1.32446,-0.497128 -0.99242,-0.330801 0.41572,0.0425 -0.66249,-0.49661 -0.0987,-0.04937 -0.226,0.03491 -0.33072,0 -0.26181,-0.08727 -0.42585,-0.354624 -0.66249,-0.49661 -0.7234,-0.434043 0.11988,0.14264 -0.82786,-0.331248 -0.60047,-0.300222 -1.11318,-0.83358 -1.65571,-1.159102 -0.39793,-0.23875 -0.96213,-0.420584 -1.32498,-0.66249 -0.35229,-0.234842 -0.65365,-0.573167 -0.99322,-0.827858 -0.11496,-0.08622 -0.58341,-0.252185 -0.66252,-0.331245 -0.0873,-0.08727 -0.0781,-0.243459 -0.16536,-0.330729 -0.1515,-0.151514 -1.06005,-0.463796 -1.32498,-0.662493 -0.82857,-0.621437 -1.76043,-1.063037 -2.64943,-1.655712 -0.76057,-0.507021 -1.16465,-0.913818 -1.98697,-1.324983 -0.1987,-0.09935 -0.29792,-0.397261 -0.49662,-0.496612 -0.95663,-0.478319 -1.83915,-1.00252 -2.8148,-1.490348 -0.48514,-0.242575 -1.04235,-0.341974 -1.49037,-0.661974 -0.19055,-0.13611 -0.30176,-0.367237 -0.4966,-0.497129 -0.41076,-0.273841 -1.06844,-0.06347 -1.32445,-0.661974 -0.43902,-0.292669 -0.87482,-0.723633 -1.32501,-0.993738 -0.27016,-0.162105 -1.423,-0.653322 -1.6557,-0.827857 -0.0987,-0.07405 -0.0781,-0.243975 -0.16537,-0.331245 -0.0652,-0.06519 -0.56399,-0.272137 -0.66249,-0.331245 -0.2372,-0.142307 -0.57145,-0.533779 -0.82785,-0.661977 -0.67673,-0.338373 -1.19103,-0.686163 -1.82161,-1.159103 -0.28114,-0.210852 -0.73181,-0.322863 -0.99322,-0.497125 -0.41717,-0.27812 -0.74329,-0.716019 -1.15908,-0.993222 -0.30195,-0.201298 -0.51692,-0.144677 -0.82786,-0.331246 -0.44717,-0.268292 -0.85735,-0.640799 -1.32498,-0.827857 -0.51117,-0.204451 -0.84042,-0.254577 -1.32448,-0.49661 -0.21105,-0.105529 -0.4436,-0.424166 -0.66249,-0.497128 -0.10472,-0.03491 -0.23254,0.04937 -0.33125,0 -0.13965,-0.06982 -0.19736,-0.25041 -0.33124,-0.330729 -0.4114,-0.246846 -0.92456,-0.362559 -1.32447,-0.66249 -0.24977,-0.187339 -0.4127,-0.475158 -0.66249,-0.662493 -0.0987,-0.07405 -0.22035,-0.110175 -0.33073,-0.165365 -0.0552,0 -0.11999,0.03062 -0.16587,0 -0.38034,-0.25355 -0.75131,-0.789831 -1.15911,-0.993738 -0.5278,-0.26389 -1.27196,-0.793014 -1.82108,-1.159102 -0.37952,-0.253011 -0.63643,-0.707372 -0.99375,-0.99322 -0.8763,-0.701037 -1.37313,-1.35692 -2.3182,-1.98696 -0.38211,-0.25474 -0.6111,-0.738997 -0.99322,-0.993737 -0.69593,-0.463958 -1.39096,-1.059707 -1.98696,-1.655713 -0.24638,-0.246364 -0.32253,-0.601215 -0.66249,-0.827857 -0.51017,-0.340109 -0.74018,-0.74019 -1.15909,-1.159103 -0.40217,-0.402166 -0.24302,0.04916 -0.49662,-0.331245 -0.54745,-0.821187 -1.40153,-1.478097 -1.82158,-2.318205 -0.0993,-0.198699 -0.39733,-0.29791 -0.49662,-0.496609 -0.0708,-0.141611 -0.0951,-0.355003 -0.16587,-0.496613 -0.0993,-0.198697 -0.39733,-0.298426 -0.49662,-0.497125 -0.29626,-0.592545 -0.5107,-1.352659 -0.82786,-1.98696 -0.0883,-0.17662 0.0883,-0.485355 0,-0.661975 -0.0246,-0.04937 -0.12689,0.03903 -0.16589,0 -0.0196,-0.01966 -0.0772,-1.210204 -0.14986,-1.526005 -0.17042,-0.01894 -0.37288,-0.114954 -0.48781,0 z m -131.80333,68.219607 c 0.7442,-0.148841 1.50802,-0.170225 2.2629,-0.251147 -0.82867,-0.23504 -2.97272,0.393112 -2.2629,0.251147 z" /></clipPath></defs><g
     inkscape:label="Layer 1"
     inkscape:groupmode="layer"
     id="layer1"><g
       id="g3"
       transform="matrix(0.3588329,0,0,0.3588329,-23.166962,167.38939)"><path
         id="path73"
         style="mix-blend-mode:normal;fill:#a9bc67;fill-opacity:1;stroke-width:0.525775"
         class="a"
         d="m 253.35213,-466.48284 c -49.73932,0 -89.9104,40.16937 -89.9104,89.90795 0,33.50808 18.24815,62.65462 45.35358,78.11968 -23.08017,13.88245 -39.15978,38.16003 -41.80037,66.39364 -0.28607,0.9155 -0.42912,2.11134 -0.42912,3.23279 v 5.00084 121.1917 c 0,7.572762 6.10798,13.673592 13.66071,13.673592 h 146.6889 c 7.58134,0 13.68932,-6.09655 13.68932,-13.673592 v -121.1917 -5.00084 c 0,-1.05852 -0.13168,-2.20428 -0.42915,-3.23279 -2.66062,-28.33775 -18.84748,-52.68987 -42.06498,-66.54125 26.96096,-15.50328 45.0918,-44.56685 45.0918,-77.96823 0,-49.73829 -40.16965,-89.9078 -89.90752,-89.9078 z" /><g
         id="g2"
         transform="translate(342.44523)"><g
           id="g6"
           transform="matrix(2.8883098,0,0,2.8883098,-283.01359,-466.48288)"><circle
             style="fill:#000000;stroke-width:7.40833;stroke-linecap:round;stroke-linejoin:round;paint-order:stroke fill markers"
             id="circle5"
             cx="50.528378"
             cy="28.203949"
             r="5.8425288" /><circle
             style="fill:#000000;stroke-width:7.40833;stroke-linecap:round;stroke-linejoin:round;paint-order:stroke fill markers"
             id="circle6"
             cx="83.730377"
             cy="28.203949"
             r="5.8425288" /></g><path
           id="path6"
           style="fill:#000000;stroke-width:21.3976;stroke-linecap:round;stroke-linejoin:round;paint-order:stroke fill markers"
           d="m -89.065691,-321.62138 a 44.494415,44.494415 0 0 0 41.71301,-29.33508 h -14.45261 a 31.270558,31.270558 0 0 1 -27.2604,16.11086 31.270558,31.270558 0 0 1 -27.340999,-16.11086 h -14.48693 a 44.494415,44.494415 0 0 0 41.827929,29.33508 z" /></g></g></g></svg>
